<svg width="800" height="600" viewBox="0 0 800 600" xmlns="http://www.w3.org/2000/svg">
  <defs>
    <style>
      .pcb-bg { fill: #0d4d3a; }
      .trace { stroke: #d4af37; stroke-width: 0.8; fill: none; stroke-linecap: round; }
      .trace-thick { stroke: #d4af37; stroke-width: 2; fill: none; stroke-linecap: round; }
      .ic { fill: #1a1a1a; stroke: #333; stroke-width: 0.5; }
      .component { fill: #1a1a1a; stroke: #333; stroke-width: 0.3; }
      .via { fill: #d4af37; }
      .pad { fill: #d4af37; }
      .solder-mask { fill: none; stroke: #d4af37; stroke-width: 0.3; opacity: 0.7; }
      .text { fill: white; font-family: Arial, sans-serif; font-size: 6px; opacity: 0.8; }
    </style>
  </defs>

  <!-- PCB Green Background -->
  <rect width="800" height="600" class="pcb-bg"/>

  <!-- Dense IC Grid Layout -->
  <!-- Row 1 -->
  <rect x="50" y="80" width="40" height="25" class="ic"/>
  <rect x="110" y="80" width="40" height="25" class="ic"/>
  <rect x="170" y="80" width="40" height="25" class="ic"/>
  <rect x="230" y="80" width="60" height="40" class="ic"/>
  <rect x="310" y="80" width="40" height="25" class="ic"/>
  <rect x="370" y="80" width="40" height="25" class="ic"/>
  <rect x="430" y="80" width="80" height="50" class="ic"/>
  <rect x="530" y="80" width="40" height="25" class="ic"/>
  <rect x="590" y="80" width="40" height="25" class="ic"/>
  <rect x="650" y="80" width="40" height="25" class="ic"/>
  <rect x="710" y="80" width="40" height="25" class="ic"/>

  <!-- Row 2 -->
  <rect x="50" y="140" width="25" height="15" class="component"/>
  <rect x="85" y="140" width="25" height="15" class="component"/>
  <rect x="120" y="140" width="25" height="15" class="component"/>
  <rect x="155" y="140" width="25" height="15" class="component"/>
  <rect x="190" y="140" width="80" height="60" class="ic"/>
  <rect x="290" y="140" width="25" height="15" class="component"/>
  <rect x="325" y="140" width="25" height="15" class="component"/>
  <rect x="360" y="140" width="25" height="15" class="component"/>
  <rect x="395" y="140" width="25" height="15" class="component"/>
  <rect x="430" y="140" width="25" height="15" class="component"/>
  <rect x="465" y="140" width="25" height="15" class="component"/>
  <rect x="500" y="140" width="100" height="70" class="ic"/>
  <rect x="620" y="140" width="25" height="15" class="component"/>
  <rect x="655" y="140" width="25" height="15" class="component"/>
  <rect x="690" y="140" width="25" height="15" class="component"/>
  <rect x="725" y="140" width="25" height="15" class="component"/>

  <!-- Row 3 -->
  <rect x="50" y="230" width="40" height="30" class="ic"/>
  <rect x="110" y="230" width="12" height="8" class="component"/>
  <rect x="130" y="230" width="12" height="8" class="component"/>
  <rect x="150" y="230" width="12" height="8" class="component"/>
  <rect x="170" y="230" width="12" height="8" class="component"/>
  <rect x="190" y="230" width="12" height="8" class="component"/>
  <rect x="210" y="230" width="12" height="8" class="component"/>
  <rect x="230" y="230" width="12" height="8" class="component"/>
  <rect x="250" y="230" width="12" height="8" class="component"/>
  <rect x="270" y="230" width="12" height="8" class="component"/>
  <rect x="290" y="230" width="60" height="45" class="ic"/>
  <rect x="370" y="230" width="12" height="8" class="component"/>
  <rect x="390" y="230" width="12" height="8" class="component"/>
  <rect x="410" y="230" width="12" height="8" class="component"/>
  <rect x="430" y="230" width="12" height="8" class="component"/>
  <rect x="450" y="230" width="12" height="8" class="component"/>
  <rect x="470" y="230" width="12" height="8" class="component"/>
  <rect x="490" y="230" width="12" height="8" class="component"/>
  <rect x="510" y="230" width="12" height="8" class="component"/>
  <rect x="530" y="230" width="40" height="30" class="ic"/>
  <rect x="590" y="230" width="40" height="30" class="ic"/>
  <rect x="650" y="230" width="40" height="30" class="ic"/>
  <rect x="710" y="230" width="40" height="30" class="ic"/>

  <!-- Row 4 -->
  <rect x="50" y="300" width="25" height="15" class="component"/>
  <rect x="85" y="300" width="25" height="15" class="component"/>
  <rect x="120" y="300" width="25" height="15" class="component"/>
  <rect x="155" y="300" width="25" height="15" class="component"/>
  <rect x="190" y="300" width="25" height="15" class="component"/>
  <rect x="225" y="300" width="25" height="15" class="component"/>
  <rect x="260" y="300" width="120" height="80" class="ic"/>
  <rect x="400" y="300" width="25" height="15" class="component"/>
  <rect x="435" y="300" width="25" height="15" class="component"/>
  <rect x="470" y="300" width="25" height="15" class="component"/>
  <rect x="505" y="300" width="25" height="15" class="component"/>
  <rect x="540" y="300" width="25" height="15" class="component"/>
  <rect x="575" y="300" width="60" height="40" class="ic"/>
  <rect x="655" y="300" width="25" height="15" class="component"/>
  <rect x="690" y="300" width="25" height="15" class="component"/>
  <rect x="725" y="300" width="25" height="15" class="component"/>

  <!-- Row 5 -->
  <rect x="50" y="420" width="40" height="25" class="ic"/>
  <rect x="110" y="420" width="40" height="25" class="ic"/>
  <rect x="170" y="420" width="12" height="8" class="component"/>
  <rect x="190" y="420" width="12" height="8" class="component"/>
  <rect x="210" y="420" width="12" height="8" class="component"/>
  <rect x="230" y="420" width="12" height="8" class="component"/>
  <rect x="250" y="420" width="12" height="8" class="component"/>
  <rect x="270" y="420" width="12" height="8" class="component"/>
  <rect x="290" y="420" width="12" height="8" class="component"/>
  <rect x="310" y="420" width="12" height="8" class="component"/>
  <rect x="330" y="420" width="12" height="8" class="component"/>
  <rect x="350" y="420" width="12" height="8" class="component"/>
  <rect x="370" y="420" width="12" height="8" class="component"/>
  <rect x="390" y="420" width="12" height="8" class="component"/>
  <rect x="410" y="420" width="100" height="60" class="ic"/>
  <rect x="530" y="420" width="40" height="25" class="ic"/>
  <rect x="590" y="420" width="40" height="25" class="ic"/>
  <rect x="650" y="420" width="40" height="25" class="ic"/>
  <rect x="710" y="420" width="40" height="25" class="ic"/>

  <!-- Bottom Row -->
  <rect x="50" y="520" width="25" height="15" class="component"/>
  <rect x="85" y="520" width="25" height="15" class="component"/>
  <rect x="120" y="520" width="25" height="15" class="component"/>
  <rect x="155" y="520" width="25" height="15" class="component"/>
  <rect x="190" y="520" width="25" height="15" class="component"/>
  <rect x="225" y="520" width="25" height="15" class="component"/>
  <rect x="260" y="520" width="25" height="15" class="component"/>
  <rect x="295" y="520" width="25" height="15" class="component"/>
  <rect x="330" y="520" width="25" height="15" class="component"/>
  <rect x="365" y="520" width="25" height="15" class="component"/>
  <rect x="400" y="520" width="25" height="15" class="component"/>
  <rect x="435" y="520" width="25" height="15" class="component"/>
  <rect x="470" y="520" width="25" height="15" class="component"/>
  <rect x="505" y="520" width="25" height="15" class="component"/>
  <rect x="540" y="520" width="25" height="15" class="component"/>
  <rect x="575" y="520" width="25" height="15" class="component"/>
  <rect x="610" y="520" width="25" height="15" class="component"/>
  <rect x="645" y="520" width="25" height="15" class="component"/>
  <rect x="680" y="520" width="25" height="15" class="component"/>
  <rect x="715" y="520" width="25" height="15" class="component"/>

  <!-- Dense Trace Network -->
  <!-- Horizontal traces connecting components -->
  <path d="M50,95 L750,95" class="trace"/>
  <path d="M50,115 L750,115" class="trace"/>
  <path d="M50,155 L750,155" class="trace"/>
  <path d="M50,175 L750,175" class="trace"/>
  <path d="M50,245 L750,245" class="trace"/>
  <path d="M50,255 L750,255" class="trace"/>
  <path d="M50,315 L750,315" class="trace"/>
  <path d="M50,335 L750,335" class="trace"/>
  <path d="M50,435 L750,435" class="trace"/>
  <path d="M50,455 L750,455" class="trace"/>
  <path d="M50,535 L750,535" class="trace"/>

  <!-- Vertical traces -->
  <path d="M70,80 L70,550" class="trace"/>
  <path d="M130,80 L130,550" class="trace"/>
  <path d="M190,80 L190,550" class="trace"/>
  <path d="M250,80 L250,550" class="trace"/>
  <path d="M330,80 L330,550" class="trace"/>
  <path d="M390,80 L390,550" class="trace"/>
  <path d="M450,80 L450,550" class="trace"/>
  <path d="M550,80 L550,550" class="trace"/>
  <path d="M610,80 L610,550" class="trace"/>
  <path d="M670,80 L670,550" class="trace"/>
  <path d="M730,80 L730,550" class="trace"/>

  <!-- Component interconnect traces -->
  <path d="M90,95 L110,147" class="trace"/>
  <path d="M150,95 L170,147" class="trace"/>
  <path d="M210,95 L230,147" class="trace"/>
  <path d="M350,95 L370,147" class="trace"/>
  <path d="M570,95 L590,147" class="trace"/>
  <path d="M630,95 L650,147" class="trace"/>
  <path d="M690,95 L710,147" class="trace"/>

  <path d="M90,245 L110,234" class="trace"/>
  <path d="M150,245 L170,234" class="trace"/>
  <path d="M210,245 L230,234" class="trace"/>
  <path d="M270,245 L290,234" class="trace"/>
  <path d="M390,245 L410,234" class="trace"/>
  <path d="M450,245 L470,234" class="trace"/>
  <path d="M570,245 L590,234" class="trace"/>
  <path d="M630,245 L650,234" class="trace"/>
  <path d="M690,245 L710,234" class="trace"/>

  <!-- Power traces (thicker) -->
  <path d="M50,60 L750,60" class="trace-thick"/>
  <path d="M50,570 L750,570" class="trace-thick"/>

  <!-- Via holes scattered throughout -->
  <circle cx="100" cy="120" r="2" class="via"/>
  <circle cx="140" cy="180" r="2" class="via"/>
  <circle cx="180" cy="220" r="2" class="via"/>
  <circle cx="220" cy="280" r="2" class="via"/>
  <circle cx="260" cy="320" r="2" class="via"/>
  <circle cx="300" cy="380" r="2" class="via"/>
  <circle cx="340" cy="420" r="2" class="via"/>
  <circle cx="380" cy="480" r="2" class="via"/>
  <circle cx="420" cy="520" r="2" class="via"/>
  <circle cx="460" cy="200" r="2" class="via"/>
  <circle cx="500" cy="260" r="2" class="via"/>
  <circle cx="540" cy="320" r="2" class="via"/>
  <circle cx="580" cy="380" r="2" class="via"/>
  <circle cx="620" cy="440" r="2" class="via"/>
  <circle cx="660" cy="500" r="2" class="via"/>
  <circle cx="700" cy="160" r="2" class="via"/>
  <circle cx="120" cy="300" r="2" class="via"/>
  <circle cx="160" cy="360" r="2" class="via"/>
  <circle cx="200" cy="400" r="2" class="via"/>
  <circle cx="240" cy="460" r="2" class="via"/>
  <circle cx="280" cy="140" r="2" class="via"/>
  <circle cx="320" cy="200" r="2" class="via"/>
  <circle cx="360" cy="260" r="2" class="via"/>
  <circle cx="400" cy="340" r="2" class="via"/>
  <circle cx="440" cy="400" r="2" class="via"/>
  <circle cx="480" cy="460" r="2" class="via"/>
  <circle cx="520" cy="180" r="2" class="via"/>
  <circle cx="560" cy="240" r="2" class="via"/>
  <circle cx="600" cy="300" r="2" class="via"/>
  <circle cx="640" cy="360" r="2" class="via"/>
  <circle cx="680" cy="420" r="2" class="via"/>
  <circle cx="720" cy="480" r="2" class="via"/>

  <!-- Connection pads -->
  <circle cx="70" cy="95" r="3" class="pad"/>
  <circle cx="130" cy="95" r="3" class="pad"/>
  <circle cx="190" cy="95" r="3" class="pad"/>
  <circle cx="250" cy="95" r="3" class="pad"/>
  <circle cx="330" cy="95" r="3" class="pad"/>
  <circle cx="390" cy="95" r="3" class="pad"/>
  <circle cx="450" cy="95" r="3" class="pad"/>
  <circle cx="550" cy="95" r="3" class="pad"/>
  <circle cx="610" cy="95" r="3" class="pad"/>
  <circle cx="670" cy="95" r="3" class="pad"/>
  <circle cx="730" cy="95" r="3" class="pad"/>
</svg>